<svg xmlns="http://www.w3.org/2000/svg" xmlns:ns1="http://sozi.baierouge.fr" xmlns:svg="http://www.w3.org/2000/svg" xmlns:xlink="http://www.w3.org/1999/xlink" id="svg3293" version="1.0" viewBox="0 0 128 128"><defs id="defs3295"><linearGradient id="linearGradient3203"><stop id="stop3205" offset="0" style="stop-color:#fff"/><stop id="stop3207" offset="1" style="stop-color:#fff;stop-opacity:0"/></linearGradient><linearGradient id="linearGradient3199" x1="110.75" x2="217.95" y1="65.506" y2="65.506" gradientTransform="translate(-100)" gradientUnits="userSpaceOnUse"><stop id="stop3195" offset="0" style="stop-color:#00c0bf"/><stop id="stop3197" offset="1" style="stop-color:#00c0bf;stop-opacity:0"/></linearGradient><linearGradient id="linearGradient3209" x1="16.523" x2="47.281" y1="65.665" y2="65.665" gradientTransform="matrix(1.4125 0 0 1 -10.983 .47495)" gradientUnits="userSpaceOnUse" xlink:href="#linearGradient3203"/><linearGradient id="linearGradient3213" x1="15.784" x2="43.246" y1="65.665" y2="65.665" gradientTransform="matrix(-0.7 0 0 1 123.25 -.23748)" gradientUnits="userSpaceOnUse" xlink:href="#linearGradient3203"/></defs><g id="layer1"><path id="rect2388" d="m24.598 68.553l79.912-0.237 0.24 39.494c-1.06 5.75-2.55 11.84-13.321 12.15h-54.145c-10.637 0.07-12.82-4.54-12.448-12.86l-0.238-38.547z" style="fill-rule:evenodd;stroke-width:0;fill:#00c0ff"/><path id="path3169" d="m14.562 6.9688c-0.753 0.0605-1.403 0.5492-1.687 1.25-0.284 0.7007-0.155 1.4938 0.344 2.0622 2.054 2.403 4.151 4.398 5.625 6.281 1.473 1.884 2.312 3.521 2.312 5.532v81.526 0.16c-0.509 6.67 0.062 11.68 2.719 15.22 2.679 3.57 7.254 4.98 13.187 4.91 8.959 0.03 46.678 0.12 54.626 0.12h0.124c5.528-0.36 9.918-1.94 12.778-5.37 2.86-3.44 3.97-8.33 3.97-14.88v-0.03l-0.34-80.625c0-3.548 0.54-4.982 1.62-6.469 1.08-1.486 3.02-3.104 5.6-6.031 0.51-0.586 0.62-1.4152 0.31-2.125s-1-1.1718-1.78-1.1875l-99.22-0.3437c-0.062-0.003-0.125-0.003-0.188 0zm4.657 4.0002l90.191 0.312c-0.92 0.932-2.05 2.019-2.79 3.031-1.53 2.112-2.4 4.781-2.4 8.813l0.06 15.906c-6.869 0.139-12.151 0.154-19.061 0 0 0-1.29 0.605-1.313 1.781-0.026 1.342 1.313 2.219 1.313 2.219h19.061l0.06 13.688c-6.835 0.138-12.108 0.153-18.996 0 0 0-1.29 0.605-1.313 1.781-0.026 1.342 1.313 2.219 1.313 2.219h19.036l0.06 15.125c-6.715 0.133-11.952 0.151-18.752 0 0 0-1.29 0.099-1.313 1.75-0.018 1.341 1.313 2.25 1.313 2.25h18.782l0.06 16.437c-6.758 0.135-12.009 0.153-18.842 0 0 0-1.29 0.099-1.313 1.75-0.018 1.342 1.313 2.249 1.313 2.249h18.872v3.5c0 6.09-1.06 9.94-3.03 12.31-1.971 2.37-5.029 3.62-9.968 3.94-8.035 0-45.613-0.09-54.531-0.12h-0.031c-5.311 0.06-8.201-1.05-9.906-3.32-1.706-2.27-2.437-6.32-1.938-12.65 0.002-0.05 0.002-0.11 0-0.16v-81.686c0-3.163-1.411-5.77-3.156-8-0.85-1.087-1.827-2.103-2.781-3.125z" style="opacity:.5;fill-rule:evenodd;fill:#000"/><path id="path2388" d="m14.75 8.9721l99.2 0.3438c-4.97 5.6321-7.72 6.2231-7.72 13.802l0.35 80.652c0 12.64-4.43 17.58-14.899 18.27-7.932 0-45.703-0.09-54.651-0.12-11.244 0.13-14.908-5.07-13.876-18.15v-81.683c0-5.173-4.47-8.514-8.404-13.115z" style="opacity:.25;stroke-linejoin:round;stroke:#000;stroke-linecap:round;stroke-width:8;fill:none"/><path id="path3191" d="m14.75 8.9721l99.2 0.3438c-4.97 5.6321-7.72 6.2231-7.72 13.802l0.35 80.652c0 12.64-4.43 17.58-14.899 18.27-7.932 0-45.703-0.09-54.651-0.12-11.244 0.13-14.908-5.07-13.876-18.15v-81.683c0-5.173-4.47-8.514-8.404-13.115z" style="opacity:.25;fill:url(#linearGradient3199)"/><path id="path3201" d="m22.56 13.536c3.601 3.958 5.394 7.916 5.032 11.874l-0.671 80.98c-1.086 12.55 7.208 12.55 22.474 12.11-10.909-3.36-8.543-9.47-8.721-16.86l-0.671-78.842c0.015-5.136-7.732-8.32-17.443-9.262z" style="opacity:.80515;fill-rule:evenodd;fill:url(#linearGradient3209)"/><path id="path3211" d="m106.63 12.824c-1.79 3.958-2.68 7.916-2.5 11.874l0.34 80.982c0.18 11.83-5.224 13.02-11.142 12.11 4.936-1.46 4.234-9.47 4.322-16.86l0.333-78.845c-0.008-5.136 3.827-8.32 8.647-9.261z" style="opacity:.80882;fill-rule:evenodd;fill:url(#linearGradient3213)"/></g><metadata/></svg>